{
	"asset":{
		"generator":"Khronos glTF Blender I/O v5.0.21",
		"version":"2.0"
	},
	"scene":0,
	"scenes":[
		{
			"name":"Scene",
			"nodes":[
				0
			]
		}
	],
	"nodes":[
		{
			"mesh":0,
			"name":"BG_ground",
			"rotation":[
				0.70710688829422,
				0,
				0,
				0.7071066498756409
			]
		}
	],
	"meshes":[
		{
			"name":"Untitled.019",
			"primitives":[
				{
					"attributes":{
						"POSITION":0,
						"NORMAL":1,
						"TEXCOORD_0":2
					},
					"indices":3
				}
			]
		}
	],
	"accessors":[
		{
			"bufferView":0,
			"componentType":5126,
			"count":65,
			"max":[
				4.770619869232178,
				3.9023070335388184,
				0.5404840111732483
			],
			"min":[
				-4.723237037658691,
				-5.591549873352051,
				-0.0021059999708086252
			],
			"type":"VEC3"
		},
		{
			"bufferView":1,
			"componentType":5126,
			"count":65,
			"type":"VEC3"
		},
		{
			"bufferView":2,
			"componentType":5126,
			"count":65,
			"type":"VEC2"
		},
		{
			"bufferView":3,
			"componentType":5123,
			"count":336,
			"type":"SCALAR"
		}
	],
	"bufferViews":[
		{
			"buffer":0,
			"byteLength":780,
			"byteOffset":0,
			"target":34962
		},
		{
			"buffer":0,
			"byteLength":780,
			"byteOffset":780,
			"target":34962
		},
		{
			"buffer":0,
			"byteLength":520,
			"byteOffset":1560,
			"target":34962
		},
		{
			"buffer":0,
			"byteLength":672,
			"byteOffset":2080,
			"target":34963
		}
	],
	"buffers":[
		{
			"byteLength":2752,
			"uri":"ground.bin"
		}
	]
}
