{
	"asset":{
		"generator":"Khronos glTF Blender I/O v5.0.21",
		"version":"2.0"
	},
	"scene":0,
	"scenes":[
		{
			"name":"Scene",
			"nodes":[
				0
			]
		}
	],
	"nodes":[
		{
			"mesh":0,
			"name":"BG_plants",
			"rotation":[
				0.21052078902721405,
				-0.641193151473999,
				0.7234451770782471,
				0.14553159475326538
			],
			"translation":[
				-2.4875495433807373,
				0.4980302155017853,
				-1.2215492725372314
			]
		}
	],
	"meshes":[
		{
			"name":"Untitled.013",
			"primitives":[
				{
					"attributes":{
						"POSITION":0,
						"NORMAL":1,
						"TEXCOORD_0":2
					},
					"indices":3
				}
			]
		}
	],
	"accessors":[
		{
			"bufferView":0,
			"componentType":5126,
			"count":5135,
			"max":[
				2.6682043075561523,
				4.92502498626709,
				1.885300874710083
			],
			"min":[
				-8.450029373168945,
				-6.027345657348633,
				-1.6302378177642822
			],
			"type":"VEC3"
		},
		{
			"bufferView":1,
			"componentType":5126,
			"count":5135,
			"type":"VEC3"
		},
		{
			"bufferView":2,
			"componentType":5126,
			"count":5135,
			"type":"VEC2"
		},
		{
			"bufferView":3,
			"componentType":5123,
			"count":21210,
			"type":"SCALAR"
		}
	],
	"bufferViews":[
		{
			"buffer":0,
			"byteLength":61620,
			"byteOffset":0,
			"target":34962
		},
		{
			"buffer":0,
			"byteLength":61620,
			"byteOffset":61620,
			"target":34962
		},
		{
			"buffer":0,
			"byteLength":41080,
			"byteOffset":123240,
			"target":34962
		},
		{
			"buffer":0,
			"byteLength":42420,
			"byteOffset":164320,
			"target":34963
		}
	],
	"buffers":[
		{
			"byteLength":206740,
			"uri":"plants.bin"
		}
	]
}
