{
	"asset":{
		"generator":"Khronos glTF Blender I/O v5.0.21",
		"version":"2.0"
	},
	"scene":0,
	"scenes":[
		{
			"name":"Scene",
			"nodes":[
				0
			]
		}
	],
	"nodes":[
		{
			"mesh":0,
			"name":"BG_sphere"
		}
	],
	"meshes":[
		{
			"name":"BG_sphere4.002",
			"primitives":[
				{
					"attributes":{
						"POSITION":0,
						"NORMAL":1,
						"TEXCOORD_0":2
					},
					"indices":3
				}
			]
		}
	],
	"accessors":[
		{
			"bufferView":0,
			"componentType":5126,
			"count":2012,
			"max":[
				53.053707122802734,
				30.634674072265625,
				53.0537109375
			],
			"min":[
				-53.0537109375,
				-18.43088150024414,
				-53.053707122802734
			],
			"type":"VEC3"
		},
		{
			"bufferView":1,
			"componentType":5126,
			"count":2012,
			"type":"VEC3"
		},
		{
			"bufferView":2,
			"componentType":5126,
			"count":2012,
			"type":"VEC2"
		},
		{
			"bufferView":3,
			"componentType":5123,
			"count":9216,
			"type":"SCALAR"
		}
	],
	"bufferViews":[
		{
			"buffer":0,
			"byteLength":24144,
			"byteOffset":0,
			"target":34962
		},
		{
			"buffer":0,
			"byteLength":24144,
			"byteOffset":24144,
			"target":34962
		},
		{
			"buffer":0,
			"byteLength":16096,
			"byteOffset":48288,
			"target":34962
		},
		{
			"buffer":0,
			"byteLength":18432,
			"byteOffset":64384,
			"target":34963
		}
	],
	"buffers":[
		{
			"byteLength":82816,
			"uri":"sphere.bin"
		}
	]
}
